# xmcd CD Database Entry
#
# Track frame offsets:
# 150
# 22993
# 43089
# 60613
# 79106
# 96670
# 116253
# 131230
# 148379
# 168015
# 186665
# 205562
# 223436
# 243079
# 258507
# 279130
#
# Disc length: 4001 seconds
#
# Revision: 1
# Processed by: cddbd v1.4b41PL1 Copyright (c) Steve Scherf et al.
# Submitted via: tcd 2.0b
#
DISCID=ef0f9f10
DTITLE=Texas - The Greatest Hits
DYEAR=1900
DGENRE=
TTITLE0=I don't want a lover
TTITLE1=In demand
TTITLE2=Say what you want
TTITLE3=Summer son
TTITLE4=Inner smile
TTITLE5=So in love with you
TTITLE6=Black eyed boy
TTITLE7=So called friend
TTITLE8=Everday now
TTITLE9=In our lifetime
TTITLE10=Halo
TTITLE11=Guitar song
TTITLE12=Prayer for you
TTITLE13=When we are together
TTITLE14=Put your arms around me
TTITLE15=Say what you want
EXTD=
EXTT0=
EXTT1=
EXTT2=
EXTT3=
EXTT4=
EXTT5=
EXTT6=
EXTT7=
EXTT8=
EXTT9=
EXTT10=
EXTT11=
EXTT12=
EXTT13=
EXTT14=
EXTT15=
PLAYORDER=
